<svg xmlns="http://www.w3.org/2000/svg" viewBox="0 0 24 24" fill="#ffffff">
  <path d="M20.447 20.452h-3.554v-5.569c0-1.327-.027-3.037-1.849-3.037-1.851 0-2.135 1.445-2.135 2.939v5.667h-3.554V9h3.414v1.561h.049c.476-.899 1.637-1.849 3.37-1.849 3.6 0 4.266 2.368 4.266 5.452v6.288zM5.337 7.433a2.063 2.063 0 1 1 0-4.127 2.063 2.063 0 0 1 0 4.127zm1.777 13.019H3.56V9h3.554v11.452zM22.225 0H1.771C.792 0 0 .774 0 1.729v20.542C0 23.227.792 24 1.771 24h20.451C23.207 24 24 23.227 24 22.271V1.729C24 .774 23.207 0 22.225 0z"/>
</svg>